<?xml version="1.0" encoding="UTF-8"?>
<svg xmlns="http://www.w3.org/2000/svg" xmlns:xlink="http://www.w3.org/1999/xlink" width="px" height="36px" viewBox="0 0 40 36" version="1.1">
<g id="surface1">
<path style=" stroke:none;fill-rule:nonzero;fill:rgb(0%,0%,0%);fill-opacity:1;" d="M 24.445312 15.75 L 21.214844 15.75 C 18.089844 15.75 15.554688 18.316406 15.554688 21.480469 C 15.554688 23.046875 16.269531 23.890625 16.890625 24.328125 C 17.359375 24.660156 17.777344 25.171875 17.777344 25.753906 C 17.777344 26.445312 17.222656 27.007812 16.542969 27.007812 L 16.367188 27.007812 C 16.203125 27.007812 16.035156 26.980469 15.875 26.910156 C 14.640625 26.351562 8.890625 23.441406 8.890625 16.875 C 8.890625 11.285156 13.367188 6.75 18.890625 6.75 L 24.445312 6.75 L 24.445312 2.441406 C 24.445312 1.089844 25.519531 0 26.855469 0 C 27.453125 0 28.019531 0.226562 28.464844 0.625 L 38.0625 9.371094 C 38.589844 9.851562 38.890625 10.53125 38.890625 11.25 C 38.890625 11.96875 38.589844 12.648438 38.0625 13.128906 L 28.410156 21.921875 C 28 22.296875 27.472656 22.5 26.921875 22.5 L 26.667969 22.5 C 25.4375 22.5 24.445312 21.496094 24.445312 20.25 Z M 5.554688 6.75 C 4.945312 6.75 4.445312 7.257812 4.445312 7.875 L 4.445312 30.375 C 4.445312 30.992188 4.945312 31.5 5.554688 31.5 L 27.777344 31.5 C 28.390625 31.5 28.890625 30.992188 28.890625 30.375 L 28.890625 27 C 28.890625 25.753906 29.882812 24.75 31.109375 24.75 C 32.339844 24.75 33.332031 25.753906 33.332031 27 L 33.332031 30.375 C 33.332031 33.484375 30.847656 36 27.777344 36 L 5.554688 36 C 2.484375 36 0 33.484375 0 30.375 L 0 7.875 C 0 4.765625 2.484375 2.25 5.554688 2.25 L 8.890625 2.25 C 10.117188 2.25 11.109375 3.253906 11.109375 4.5 C 11.109375 5.746094 10.117188 6.75 8.890625 6.75 Z M 5.554688 6.75 "/>
</g>
</svg>
