<?xml version="1.0" encoding="UTF-8"?>
<svg xmlns="http://www.w3.org/2000/svg" xmlns:xlink="http://www.w3.org/1999/xlink" width="px" height="36px" viewBox="0 0 40 36" version="1.1">
<g id="surface1">
<path style=" stroke:none;fill-rule:nonzero;fill:rgb(0%,0%,0%);fill-opacity:1;" d="M 27.777344 17.957031 L 27.777344 14.625 C 27.777344 14.007812 27.277344 13.5 26.667969 13.5 L 20.105469 13.5 C 16.570312 13.5 13.582031 15.855469 12.582031 19.097656 C 12.355469 18.4375 12.222656 17.703125 12.222656 16.875 C 12.222656 12.523438 15.703125 9 20 9 L 26.667969 9 C 27.277344 9 27.777344 8.492188 27.777344 7.875 L 27.777344 4.542969 L 35.140625 11.25 Z M 23.332031 16.875 L 24.445312 16.875 L 24.445312 20.25 C 24.445312 21.496094 25.4375 22.5 26.667969 22.5 L 26.921875 22.5 C 27.472656 22.5 28 22.296875 28.410156 21.921875 L 38.0625 13.128906 C 38.589844 12.648438 38.890625 11.96875 38.890625 11.25 C 38.890625 10.53125 38.589844 9.851562 38.0625 9.371094 L 28.464844 0.625 C 28.019531 0.226562 27.453125 0 26.855469 0 C 25.519531 0 24.445312 1.089844 24.445312 2.441406 L 24.445312 5.625 L 20 5.625 C 13.859375 5.625 8.890625 10.660156 8.890625 16.875 C 8.890625 21.121094 11.292969 23.84375 13.328125 25.375 C 13.734375 25.683594 14.125 25.945312 14.484375 26.164062 C 14.792969 26.351562 15.078125 26.507812 15.3125 26.628906 C 15.546875 26.746094 15.742188 26.839844 15.882812 26.902344 C 16.035156 26.972656 16.203125 27 16.375 27 L 16.546875 27 C 17.230469 27 17.785156 26.4375 17.785156 25.75 C 17.785156 25.199219 17.417969 24.714844 16.980469 24.378906 C 16.953125 24.355469 16.929688 24.34375 16.902344 24.320312 C 16.785156 24.242188 16.667969 24.144531 16.554688 24.03125 C 16.5 23.976562 16.4375 23.921875 16.382812 23.851562 C 16.328125 23.78125 16.269531 23.714844 16.214844 23.644531 C 16.089844 23.46875 15.972656 23.273438 15.867188 23.046875 C 15.6875 22.625 15.570312 22.113281 15.570312 21.472656 C 15.570312 18.933594 17.605469 16.867188 20.117188 16.867188 L 23.332031 16.867188 Z M 5 2.25 C 2.234375 2.25 0 4.515625 0 7.3125 L 0 30.9375 C 0 33.734375 2.234375 36 5 36 L 28.332031 36 C 31.097656 36 33.332031 33.734375 33.332031 30.9375 L 33.332031 26.4375 C 33.332031 25.503906 32.589844 24.75 31.667969 24.75 C 30.742188 24.75 30 25.503906 30 26.4375 L 30 30.9375 C 30 31.871094 29.257812 32.625 28.332031 32.625 L 5 32.625 C 4.078125 32.625 3.332031 31.871094 3.332031 30.9375 L 3.332031 7.3125 C 3.332031 6.378906 4.078125 5.625 5 5.625 L 9.445312 5.625 C 10.367188 5.625 11.109375 4.871094 11.109375 3.9375 C 11.109375 3.003906 10.367188 2.25 9.445312 2.25 Z M 5 2.25 "/>
</g>
</svg>
