<svg width="512" height="512" viewBox="0 0 512 512" fill="none" xmlns="http://www.w3.org/2000/svg">
<path d="M0 79C0 35.3695 35.3695 0 79 0H433C476.63 0 512 35.3695 512 79V433C512 476.63 476.63 512 433 512H79C35.3695 512 0 476.63 0 433V79Z" fill="#D9D9D9"/>
<path d="M98.0425 252.076H144.15V120.729C144.15 117.343 143.728 114.65 142.884 112.649C142.039 110.649 140.857 109.11 139.337 108.032C137.817 106.801 135.959 106.032 133.763 105.724C131.737 105.262 129.457 105.032 126.923 105.032C123.208 105.032 118.563 105.57 112.99 106.647C107.585 107.725 101.843 109.341 95.7625 111.495C89.6823 113.65 83.5177 116.343 77.2687 119.574C71.1885 122.652 65.6995 126.192 60.8016 130.193C56.0726 134.194 52.188 138.657 49.1479 143.582C46.1079 148.506 44.5878 153.815 44.5878 159.509C44.5878 164.434 45.2634 168.358 46.6145 171.282C48.1346 174.206 49.8235 176.438 51.6813 177.977C53.5392 179.362 55.397 180.285 57.2548 180.747C59.2815 181.054 60.7171 181.208 61.5616 181.208C65.7839 181.208 69.2462 180.593 71.9485 179.362C74.6508 177.977 77.0998 176.592 79.2954 175.206C81.491 173.668 83.5177 172.283 85.3756 171.051C87.4023 169.666 89.6823 168.974 92.2157 168.974C94.2425 168.974 96.3536 169.436 98.5492 170.359C100.914 171.128 103.025 172.436 104.883 174.283C106.909 176.13 108.598 178.592 109.95 181.67C111.301 184.594 111.976 188.21 111.976 192.519C111.976 198.675 110.625 203.984 107.923 208.447C105.389 212.91 102.012 216.68 97.7892 219.758C93.7358 222.682 89.0068 224.914 83.6022 226.453C78.3665 227.838 73.1308 228.53 67.8951 228.53C59.7882 228.53 52.4414 227.299 45.8545 224.837C39.4366 222.221 33.9476 218.681 29.3874 214.218C24.8273 209.755 21.365 204.523 19.0005 198.521C16.636 192.519 15.4537 186.133 15.4537 179.362C15.4537 168.743 17.5649 159.048 21.7872 150.276C26.0096 141.35 31.7519 133.348 39.0143 126.269C46.4457 119.19 55.0592 113.034 64.855 107.802C74.8197 102.415 85.5444 97.9525 97.0292 94.413C108.514 90.8735 120.505 88.2573 133.003 86.5645C145.502 84.7178 158 83.7944 170.498 83.7944C184.347 83.7944 195.072 85.0255 202.672 87.4878C210.441 89.7962 216.099 92.6432 219.646 96.0289C223.361 99.4145 225.557 102.954 226.233 106.647C226.908 110.341 227.246 113.419 227.246 115.881V252.076H320.475V141.042C320.475 115.65 324.106 94.0283 331.369 76.1767C338.631 58.3252 348.005 43.7824 359.489 32.5482C370.974 21.1602 383.81 12.927 397.997 7.84851C412.184 2.61617 426.287 0 440.305 0C449.932 0 459.052 0.692516 467.665 2.07755C476.448 3.30869 484.048 5.23234 490.466 7.84851C497.053 10.4647 502.289 13.7734 506.173 17.7746C510.058 21.6219 512 26.1617 512 31.394C512 33.7024 511.578 35.9339 510.733 38.0884C510.058 40.089 509.044 41.9357 507.693 43.6285C506.342 45.3213 504.738 46.7063 502.88 47.7836C501.191 48.7069 499.417 49.1686 497.56 49.1686C494.52 49.1686 491.817 48.3222 489.453 46.6294C487.088 44.9366 484.808 42.859 482.613 40.3968C480.586 37.7806 478.559 35.0105 476.532 32.0866C474.506 29.0087 472.226 26.2387 469.692 23.7764C467.159 21.1602 464.288 19.0057 461.079 17.3129C457.87 15.6201 454.07 14.7737 449.678 14.7737C439.376 14.7737 431.185 17.3898 425.104 22.6222C419.024 27.7006 414.38 35.2414 411.171 45.2444C407.962 55.0935 405.851 67.4049 404.837 82.1785C403.993 96.9522 403.57 113.88 403.57 132.963V252.076H454.492V272.39H403.57V412.739C403.57 417.202 404.584 420.819 406.611 423.589C408.806 426.205 412.1 427.513 416.491 427.513C421.22 427.513 425.611 426.744 429.665 425.205C433.718 423.666 437.265 422.204 440.305 420.819L444.612 429.36C440.896 431.668 436.505 434.053 431.438 436.516C426.54 439.132 421.051 441.517 414.971 443.672C409.06 445.98 402.642 447.827 395.717 449.212C388.961 450.751 381.868 451.52 374.436 451.52C362.952 451.52 353.663 450.135 346.569 447.365C339.476 444.595 333.986 440.902 330.102 436.285C326.217 431.822 323.6 426.744 322.248 421.05C321.066 415.356 320.475 409.585 320.475 403.737V272.39H227.246V387.347C227.246 408.277 223.024 426.513 214.579 442.056C206.303 457.599 194.903 470.526 180.378 480.837C165.853 491.301 148.711 499.073 128.95 504.151C109.358 509.384 88.3312 512 65.8684 512C57.2548 512 48.9791 511.307 41.0411 509.922C33.1031 508.691 26.094 506.922 20.0139 504.613C13.9337 502.305 9.12024 499.535 5.57348 496.303C1.85783 493.225 0 489.84 0 486.146C0 483.376 0.422233 480.529 1.2667 477.605C2.11117 474.835 3.37787 472.296 5.0668 469.987C6.75573 467.679 8.8669 465.755 11.4003 464.216C13.7648 462.677 16.4671 461.908 19.5072 461.908C21.365 461.908 22.9695 462.754 24.3206 464.447C25.8407 466.14 27.3607 468.218 28.8808 470.68C30.4008 473.296 32.0897 476.066 33.9476 478.99C35.9743 481.914 38.5077 484.607 41.5477 487.069C44.7567 489.686 48.5568 491.84 52.948 493.533C57.3393 495.226 62.8283 496.072 69.4151 496.072C82.4199 496.072 93.5669 493.918 102.856 489.609C112.314 485.3 120.083 479.221 126.163 471.372C132.243 463.524 136.719 454.136 139.59 443.21C142.63 432.438 144.15 420.588 144.15 407.661V272.39H98.0425V252.076Z" fill="#7828C8"/>
</svg>
