<svg width="234" height="47" viewBox="0 0 234 47" fill="#9750DD" xmlns="http://www.w3.org/2000/svg">
<path d="M8.36719 22.0391H11.9219V10.9258C11.9219 10.6393 11.8893 10.4115 11.8242 10.2422C11.7591 10.0729 11.668 9.94271 11.5508 9.85156C11.4336 9.7474 11.2904 9.68229 11.1211 9.65625C10.9648 9.61719 10.7891 9.59766 10.5938 9.59766C10.3073 9.59766 9.94922 9.64323 9.51953 9.73438C9.10286 9.82552 8.66016 9.96224 8.19141 10.1445C7.72266 10.3268 7.2474 10.5547 6.76562 10.8281C6.29688 11.0885 5.8737 11.388 5.49609 11.7266C5.13151 12.0651 4.83203 12.4427 4.59766 12.8594C4.36328 13.276 4.24609 13.7253 4.24609 14.207C4.24609 14.6237 4.29818 14.9557 4.40234 15.2031C4.51953 15.4505 4.64974 15.6393 4.79297 15.7695C4.9362 15.8867 5.07943 15.9648 5.22266 16.0039C5.37891 16.0299 5.48958 16.043 5.55469 16.043C5.88021 16.043 6.14714 15.9909 6.35547 15.8867C6.5638 15.7695 6.7526 15.6523 6.92188 15.5352C7.09115 15.4049 7.2474 15.2878 7.39062 15.1836C7.54688 15.0664 7.72266 15.0078 7.91797 15.0078C8.07422 15.0078 8.23698 15.0469 8.40625 15.125C8.58854 15.1901 8.7513 15.3008 8.89453 15.457C9.05078 15.6133 9.18099 15.8216 9.28516 16.082C9.38932 16.3294 9.44141 16.6354 9.44141 17C9.44141 17.5208 9.33724 17.9701 9.12891 18.3477C8.93359 18.7253 8.67318 19.0443 8.34766 19.3047C8.03516 19.5521 7.67057 19.7409 7.25391 19.8711C6.85026 19.9883 6.44661 20.0469 6.04297 20.0469C5.41797 20.0469 4.85156 19.9427 4.34375 19.7344C3.84896 19.513 3.42578 19.2135 3.07422 18.8359C2.72266 18.4583 2.45573 18.0156 2.27344 17.5078C2.09115 17 2 16.4596 2 15.8867C2 14.9883 2.16276 14.168 2.48828 13.4258C2.8138 12.6706 3.25651 11.9935 3.81641 11.3945C4.38932 10.7956 5.05339 10.2747 5.80859 9.83203C6.57682 9.3763 7.40365 8.9987 8.28906 8.69922C9.17448 8.39974 10.099 8.17839 11.0625 8.03516C12.026 7.87891 12.9896 7.80078 13.9531 7.80078C15.0208 7.80078 15.8477 7.90495 16.4336 8.11328C17.0326 8.30859 17.4688 8.54948 17.7422 8.83594C18.0286 9.1224 18.1979 9.42188 18.25 9.73438C18.3021 10.0469 18.3281 10.3073 18.3281 10.5156V22.0391H25.5156V12.6445C25.5156 10.4961 25.7956 8.66667 26.3555 7.15625C26.9154 5.64583 27.638 4.41536 28.5234 3.46484C29.4089 2.5013 30.3984 1.80469 31.4922 1.375C32.5859 0.932292 33.6732 0.710938 34.7539 0.710938C35.4961 0.710938 36.1992 0.769531 36.8633 0.886719C37.5404 0.990885 38.1263 1.15365 38.6211 1.375C39.1289 1.59635 39.5326 1.8763 39.832 2.21484C40.1315 2.54036 40.2812 2.92448 40.2812 3.36719C40.2812 3.5625 40.2487 3.7513 40.1836 3.93359C40.1315 4.10286 40.0534 4.25911 39.9492 4.40234C39.8451 4.54557 39.7214 4.66276 39.5781 4.75391C39.4479 4.83203 39.3112 4.87109 39.168 4.87109C38.9336 4.87109 38.7253 4.79948 38.543 4.65625C38.3607 4.51302 38.1849 4.33724 38.0156 4.12891C37.8594 3.90755 37.7031 3.67318 37.5469 3.42578C37.3906 3.16536 37.2148 2.93099 37.0195 2.72266C36.8242 2.5013 36.6029 2.31901 36.3555 2.17578C36.1081 2.03255 35.8151 1.96094 35.4766 1.96094C34.6823 1.96094 34.0508 2.18229 33.582 2.625C33.1133 3.05469 32.7552 3.69271 32.5078 4.53906C32.2604 5.3724 32.0977 6.41406 32.0195 7.66406C31.9544 8.91406 31.9219 10.3464 31.9219 11.9609V22.0391H35.8477V23.7578H31.9219V35.6328C31.9219 36.0104 32 36.3164 32.1562 36.5508C32.3255 36.7721 32.5794 36.8828 32.918 36.8828C33.2826 36.8828 33.6211 36.8177 33.9336 36.6875C34.2461 36.5573 34.5195 36.4336 34.7539 36.3164L35.0859 37.0391C34.7995 37.2344 34.4609 37.4362 34.0703 37.6445C33.6927 37.8659 33.2695 38.0677 32.8008 38.25C32.3451 38.4453 31.8503 38.6016 31.3164 38.7188C30.7956 38.849 30.2487 38.9141 29.6758 38.9141C28.7904 38.9141 28.0742 38.7969 27.5273 38.5625C26.9805 38.3281 26.5573 38.0156 26.2578 37.625C25.9583 37.2474 25.7565 36.8177 25.6523 36.3359C25.5612 35.8542 25.5156 35.3659 25.5156 34.8711V23.7578H18.3281V33.4844C18.3281 35.2552 18.0026 36.7982 17.3516 38.1133C16.7135 39.4284 15.8346 40.5221 14.7148 41.3945C13.5951 42.2799 12.2734 42.9375 10.75 43.3672C9.23958 43.8099 7.61849 44.0312 5.88672 44.0312C5.22266 44.0312 4.58464 43.9727 3.97266 43.8555C3.36068 43.7513 2.82031 43.6016 2.35156 43.4062C1.88281 43.2109 1.51172 42.9766 1.23828 42.7031C0.951823 42.4427 0.808594 42.1562 0.808594 41.8438C0.808594 41.6094 0.841146 41.3685 0.90625 41.1211C0.971354 40.8867 1.06901 40.6719 1.19922 40.4766C1.32943 40.2812 1.49219 40.1185 1.6875 39.9883C1.86979 39.8581 2.07812 39.793 2.3125 39.793C2.45573 39.793 2.57943 39.8646 2.68359 40.0078C2.80078 40.151 2.91797 40.3268 3.03516 40.5352C3.15234 40.7565 3.28255 40.9909 3.42578 41.2383C3.58203 41.4857 3.77734 41.7135 4.01172 41.9219C4.25911 42.1432 4.55208 42.3255 4.89062 42.4688C5.22917 42.612 5.65234 42.6836 6.16016 42.6836C7.16276 42.6836 8.02214 42.5013 8.73828 42.1367C9.46745 41.7721 10.0664 41.2578 10.5352 40.5938C11.0039 39.9297 11.349 39.1354 11.5703 38.2109C11.8047 37.2995 11.9219 36.2969 11.9219 35.2031V23.7578H8.36719V22.0391ZM54.6953 19.793C54.6953 22.1758 54.4609 24.4805 53.9922 26.707C53.5365 28.9206 52.8984 31.0039 52.0781 32.957C51.2708 34.8971 50.3073 36.668 49.1875 38.2695C48.0677 39.8841 46.8503 41.2643 45.5352 42.4102C44.2201 43.556 42.8268 44.4479 41.3555 45.0859C39.8971 45.724 38.4193 46.043 36.9219 46.043C35.776 46.043 34.8906 45.8477 34.2656 45.457C33.6406 45.0794 33.3281 44.5651 33.3281 43.9141C33.3281 43.6667 33.3672 43.4258 33.4453 43.1914C33.5234 42.957 33.6276 42.7487 33.7578 42.5664C33.888 42.3841 34.0443 42.2344 34.2266 42.1172C34.4089 42.013 34.6042 41.9609 34.8125 41.9609C35.0599 41.9609 35.2682 42.0846 35.4375 42.332C35.5938 42.5794 35.763 42.8464 35.9453 43.1328C36.1276 43.4323 36.349 43.7057 36.6094 43.9531C36.8698 44.2005 37.2279 44.3242 37.6836 44.3242C38.2695 44.3242 38.8815 44.2201 39.5195 44.0117C40.1576 43.8164 40.7956 43.5299 41.4336 43.1523C42.0846 42.7747 42.7292 42.3125 43.3672 41.7656C44.0182 41.2318 44.6562 40.6328 45.2812 39.9688C44.9167 38.6536 44.4935 37.2214 44.0117 35.6719C43.543 34.1094 43.0417 32.5404 42.5078 30.9648C41.987 29.3893 41.4466 27.8724 40.8867 26.4141C40.3398 24.9427 39.7995 23.6406 39.2656 22.5078C38.7448 21.375 38.237 20.4701 37.7422 19.793C37.2604 19.1029 36.8307 18.7578 36.4531 18.7578C36.2057 18.7578 36.0169 18.7969 35.8867 18.875C35.7435 18.9531 35.5807 19.0638 35.3984 19.207L35.0078 18.7188C35.2682 18.4974 35.5417 18.2695 35.8281 18.0352C36.1146 17.8008 36.4531 17.5859 36.8438 17.3906C37.2344 17.1953 37.6901 17.0391 38.2109 16.9219C38.7318 16.7917 39.3568 16.7266 40.0859 16.7266C40.8802 16.7266 41.6159 16.9089 42.293 17.2734C42.9831 17.625 43.6081 18.2826 44.168 19.2461C44.5716 19.9622 44.9883 20.8216 45.418 21.8242C45.8607 22.8268 46.3034 23.9466 46.7461 25.1836C47.1888 26.4206 47.6315 27.7617 48.0742 29.207C48.5299 30.6393 48.9857 32.1432 49.4414 33.7188C50.2487 32.026 50.8997 30.2357 51.3945 28.3477C51.8893 26.4466 52.1367 24.4935 52.1367 22.4883C52.1367 21.7721 52.0911 21.1602 52 20.6523C51.9089 20.1445 51.8047 19.7148 51.6875 19.3633C51.5703 18.9987 51.4661 18.6927 51.375 18.4453C51.2839 18.1849 51.2383 17.957 51.2383 17.7617C51.2383 17.5664 51.3164 17.4036 51.4727 17.2734C51.6289 17.1302 51.8177 17.0195 52.0391 16.9414C52.2604 16.8633 52.4818 16.8112 52.7031 16.7852C52.9375 16.7461 53.1328 16.7266 53.2891 16.7266C53.6406 16.7266 53.9076 16.7982 54.0898 16.9414C54.2852 17.0846 54.4284 17.293 54.5195 17.5664C54.6107 17.8268 54.6628 18.1458 54.6758 18.5234C54.6888 18.901 54.6953 19.3242 54.6953 19.793ZM58.582 20.1641C58.582 19.7865 58.4909 19.4609 58.3086 19.1875C58.1393 18.901 57.8464 18.7578 57.4297 18.7578C57.2083 18.7578 57.0195 18.7969 56.8633 18.875C56.707 18.9531 56.5378 19.0638 56.3555 19.207L55.9453 18.7188C56.2448 18.4714 56.5768 18.2305 56.9414 17.9961C57.319 17.7487 57.7227 17.5339 58.1523 17.3516C58.582 17.1693 59.0443 17.0195 59.5391 16.9023C60.0339 16.7852 60.5547 16.7266 61.1016 16.7266C61.6875 16.7266 62.1888 16.8177 62.6055 17C63.0221 17.1823 63.3672 17.4036 63.6406 17.6641C63.9271 17.9115 64.1419 18.1784 64.2852 18.4648C64.4284 18.7383 64.513 18.9727 64.5391 19.168C64.7995 18.8034 65.1055 18.4714 65.457 18.1719C65.8216 17.8724 66.2122 17.6185 66.6289 17.4102C67.0586 17.1888 67.5078 17.0195 67.9766 16.9023C68.4583 16.7852 68.9531 16.7266 69.4609 16.7266C70.5026 16.7266 71.4466 16.9414 72.293 17.3711C73.1393 17.8008 73.862 18.4388 74.4609 19.2852C75.0729 20.1315 75.5417 21.1797 75.8672 22.4297C76.1927 23.6797 76.3555 25.125 76.3555 26.7656C76.3555 28.6667 76.1536 30.2878 75.75 31.6289C75.3594 32.957 74.8385 34.0443 74.1875 34.8906C73.5495 35.737 72.8138 36.3555 71.9805 36.7461C71.1602 37.1237 70.3203 37.3125 69.4609 37.3125C68.7448 37.3125 68.1133 37.2409 67.5664 37.0977C67.0326 36.9544 66.5703 36.7786 66.1797 36.5703C65.7891 36.362 65.4635 36.1536 65.2031 35.9453C64.9427 35.724 64.7344 35.5417 64.5781 35.3984V44.9297C64.5781 45.099 64.5521 45.3008 64.5 45.5352C64.4479 45.7695 64.3177 45.9909 64.1094 46.1992C63.9141 46.4206 63.6146 46.6094 63.2109 46.7656C62.8203 46.9219 62.2799 47 61.5898 47C60.8997 47 60.3529 46.9154 59.9492 46.7461C59.5586 46.5898 59.2591 46.3945 59.0508 46.1602C58.8424 45.9388 58.7122 45.7109 58.6602 45.4766C58.6081 45.2552 58.582 45.0729 58.582 44.9297V20.1641ZM64.5781 32.6055C64.5781 32.7096 64.6237 32.8919 64.7148 33.1523C64.806 33.4128 64.9492 33.6797 65.1445 33.9531C65.3398 34.2266 65.5872 34.474 65.8867 34.6953C66.1992 34.9036 66.5768 35.0078 67.0195 35.0078C67.5924 35.0078 68.0807 34.793 68.4844 34.3633C68.888 33.9206 69.2201 33.3281 69.4805 32.5859C69.7409 31.8307 69.9297 30.9583 70.0469 29.9688C70.1641 28.9661 70.2227 27.8984 70.2227 26.7656C70.2227 25.3724 70.1445 24.194 69.9883 23.2305C69.8451 22.2669 69.6302 21.4922 69.3438 20.9062C69.0573 20.3073 68.7122 19.8776 68.3086 19.6172C67.918 19.3438 67.4753 19.207 66.9805 19.207C66.694 19.207 66.4076 19.2917 66.1211 19.4609C65.8346 19.6172 65.5742 19.819 65.3398 20.0664C65.1185 20.3008 64.9362 20.5677 64.793 20.8672C64.6497 21.1667 64.5781 21.4531 64.5781 21.7266V32.6055ZM85.1055 28.0352C85.1055 28.4518 85.1641 28.9076 85.2812 29.4023C85.4115 29.8841 85.5938 30.3724 85.8281 30.8672C86.0625 31.362 86.349 31.8372 86.6875 32.293C87.0391 32.7357 87.4362 33.1328 87.8789 33.4844C88.3346 33.8359 88.8359 34.1159 89.3828 34.3242C89.9297 34.5326 90.5286 34.6367 91.1797 34.6367C91.6354 34.6367 92.0586 34.5846 92.4492 34.4805C92.8398 34.3763 93.2044 34.2331 93.543 34.0508C93.8815 33.8685 94.207 33.6602 94.5195 33.4258C94.832 33.1784 95.1445 32.918 95.457 32.6445L95.9453 33.1133C95.6458 33.5169 95.2617 33.9596 94.793 34.4414C94.3242 34.9232 93.7578 35.3789 93.0938 35.8086C92.4297 36.2253 91.6549 36.5768 90.7695 36.8633C89.8841 37.1367 88.875 37.2734 87.7422 37.2734C86.6094 37.2734 85.5026 37.0716 84.4219 36.668C83.3542 36.2513 82.4036 35.6328 81.5703 34.8125C80.737 33.9922 80.0664 32.9701 79.5586 31.7461C79.0638 30.5221 78.8164 29.0898 78.8164 27.4492C78.8164 26.2643 78.9661 25.1771 79.2656 24.1875C79.5651 23.1979 79.9688 22.306 80.4766 21.5117C80.9974 20.7174 81.5964 20.0208 82.2734 19.4219C82.9635 18.8229 83.6862 18.3281 84.4414 17.9375C85.1966 17.5339 85.9648 17.2344 86.7461 17.0391C87.5404 16.8307 88.3021 16.7266 89.0312 16.7266C89.9948 16.7266 90.8346 16.8307 91.5508 17.0391C92.2669 17.2474 92.8594 17.5273 93.3281 17.8789C93.8099 18.2305 94.168 18.6406 94.4023 19.1094C94.6367 19.5651 94.7539 20.0469 94.7539 20.5547C94.7539 21.1667 94.5781 21.7201 94.2266 22.2148C93.875 22.6966 93.4062 23.1198 92.8203 23.4844L85.1055 28.0352ZM89.0312 24.0703C89.2005 23.9661 89.3372 23.8685 89.4414 23.7773C89.5586 23.6732 89.6497 23.556 89.7148 23.4258C89.7799 23.2826 89.8255 23.1133 89.8516 22.918C89.8906 22.7096 89.9102 22.4557 89.9102 22.1562C89.9102 21.8307 89.8711 21.4727 89.793 21.082C89.7279 20.6784 89.6107 20.3008 89.4414 19.9492C89.2721 19.5977 89.0573 19.3047 88.7969 19.0703C88.5365 18.8359 88.224 18.7188 87.8594 18.7188C87.3906 18.7188 86.987 18.862 86.6484 19.1484C86.3229 19.4219 86.0495 19.7799 85.8281 20.2227C85.6198 20.6654 85.4505 21.1732 85.3203 21.7461C85.2031 22.306 85.112 22.8724 85.0469 23.4453C84.9818 24.0182 84.9427 24.5716 84.9297 25.1055C84.9167 25.6263 84.9102 26.069 84.9102 26.4336L89.0312 24.0703ZM104.812 20.8477C105.307 20.0924 105.835 19.4089 106.395 18.7969C106.629 18.5365 106.883 18.2826 107.156 18.0352C107.43 17.7878 107.71 17.5664 107.996 17.3711C108.296 17.1758 108.602 17.0195 108.914 16.9023C109.227 16.7852 109.539 16.7266 109.852 16.7266C110.516 16.7266 111.036 16.9284 111.414 17.332C111.792 17.7227 111.98 18.276 111.98 18.9922C111.98 19.4349 111.941 19.8646 111.863 20.2812C111.798 20.6849 111.661 21.1797 111.453 21.7656H110.906C110.828 21.362 110.646 21.0299 110.359 20.7695C110.073 20.4961 109.656 20.3594 109.109 20.3594C108.706 20.3594 108.309 20.4375 107.918 20.5938C107.527 20.737 107.143 20.9193 106.766 21.1406C106.401 21.362 106.049 21.6029 105.711 21.8633C105.385 22.1237 105.086 22.3711 104.812 22.6055V35.2812C104.812 35.4505 104.786 35.6523 104.734 35.8867C104.682 36.1211 104.552 36.3424 104.344 36.5508C104.148 36.7591 103.849 36.9349 103.445 37.0781C103.055 37.2344 102.514 37.3125 101.824 37.3125C101.134 37.3125 100.587 37.2279 100.184 37.0586C99.793 36.9023 99.4935 36.7135 99.2852 36.4922C99.0768 36.2708 98.9466 36.043 98.8945 35.8086C98.8424 35.5742 98.8164 35.3854 98.8164 35.2422V20.1641C98.8164 19.7865 98.7253 19.4609 98.543 19.1875C98.3737 18.901 98.0807 18.7578 97.6641 18.7578C97.4427 18.7578 97.2539 18.7969 97.0977 18.875C96.9414 18.9531 96.7721 19.0638 96.5898 19.207L96.1797 18.7188C96.4792 18.4714 96.8112 18.2305 97.1758 17.9961C97.5534 17.7487 97.957 17.5339 98.3867 17.3516C98.8164 17.1693 99.2786 17.0195 99.7734 16.9023C100.268 16.7852 100.789 16.7266 101.336 16.7266C101.896 16.7266 102.371 16.8047 102.762 16.9609C103.165 17.1042 103.491 17.2995 103.738 17.5469C103.999 17.7812 104.201 18.0482 104.344 18.3477C104.487 18.6471 104.591 18.9531 104.656 19.2656C104.734 19.5651 104.78 19.8581 104.793 20.1445C104.806 20.418 104.812 20.6523 104.812 20.8477ZM138.27 22.918C138.27 22.0586 138.211 21.349 138.094 20.7891C137.977 20.2292 137.846 19.7669 137.703 19.4023C137.573 19.0247 137.449 18.7188 137.332 18.4844C137.215 18.237 137.156 18.0091 137.156 17.8008C137.156 17.6055 137.234 17.4427 137.391 17.3125C137.547 17.1823 137.729 17.0716 137.938 16.9805C138.159 16.8893 138.38 16.8242 138.602 16.7852C138.836 16.7461 139.025 16.7266 139.168 16.7266C139.546 16.7266 139.819 16.7786 139.988 16.8828C140.158 16.987 140.294 17.1888 140.398 17.4883C140.516 17.8659 140.594 18.3672 140.633 18.9922C140.685 19.6042 140.711 20.2617 140.711 20.9648C140.711 21.9674 140.652 23.0677 140.535 24.2656C140.418 25.4635 140.229 26.668 139.969 27.8789C139.721 29.0898 139.396 30.2617 138.992 31.3945C138.602 32.5273 138.126 33.5365 137.566 34.4219C137.007 35.2943 136.362 35.9974 135.633 36.5312C134.904 37.0521 134.077 37.3125 133.152 37.3125C132.423 37.3125 131.766 37.1693 131.18 36.8828C130.607 36.5833 130.092 36.1797 129.637 35.6719C129.181 35.1641 128.777 34.5716 128.426 33.8945C128.087 33.2044 127.788 32.4688 127.527 31.6875C127.228 32.4818 126.883 33.224 126.492 33.9141C126.102 34.5911 125.665 35.1836 125.184 35.6914C124.715 36.1992 124.194 36.5964 123.621 36.8828C123.048 37.1693 122.43 37.3125 121.766 37.3125C120.945 37.3125 120.216 37.1367 119.578 36.7852C118.953 36.4206 118.4 35.9323 117.918 35.3203C117.436 34.6953 117.02 33.9727 116.668 33.1523C116.316 32.332 116.01 31.4661 115.75 30.5547C115.503 29.6432 115.294 28.7057 115.125 27.7422C114.956 26.7786 114.812 25.8477 114.695 24.9492C114.578 24.0508 114.48 23.2109 114.402 22.4297C114.324 21.6484 114.246 20.9714 114.168 20.3984C114.077 19.8776 113.94 19.474 113.758 19.1875C113.589 18.901 113.296 18.7578 112.879 18.7578C112.658 18.7578 112.469 18.7969 112.312 18.875C112.156 18.9531 111.987 19.0638 111.805 19.207L111.395 18.7188C111.694 18.4714 112.026 18.2305 112.391 17.9961C112.768 17.7487 113.172 17.5339 113.602 17.3516C114.031 17.1693 114.493 17.0195 114.988 16.9023C115.483 16.7852 116.004 16.7266 116.551 16.7266C117.332 16.7266 117.964 16.8633 118.445 17.1367C118.927 17.3971 119.305 17.7292 119.578 18.1328C119.865 18.5234 120.066 18.9466 120.184 19.4023C120.301 19.8581 120.385 20.2682 120.438 20.6328C120.672 22.599 120.9 24.3307 121.121 25.8281C121.355 27.3255 121.603 28.582 121.863 29.5977C122.124 30.6003 122.404 31.362 122.703 31.8828C123.016 32.3906 123.38 32.6445 123.797 32.6445C124.07 32.6445 124.337 32.5273 124.598 32.293C124.858 32.0586 125.105 31.7331 125.34 31.3164C125.574 30.8997 125.796 30.3984 126.004 29.8125C126.212 29.2135 126.395 28.556 126.551 27.8398C126.421 27.1237 126.31 26.4141 126.219 25.7109C126.128 25.0078 126.043 24.3372 125.965 23.6992C125.9 23.0482 125.835 22.4427 125.77 21.8828C125.704 21.3229 125.633 20.8281 125.555 20.3984C125.359 19.1745 125.47 18.2565 125.887 17.6445C126.316 17.0326 127.169 16.7266 128.445 16.7266C129.005 16.7266 129.474 16.7786 129.852 16.8828C130.242 16.974 130.561 17.1562 130.809 17.4297C131.069 17.6901 131.277 18.0547 131.434 18.5234C131.59 18.9792 131.714 19.5651 131.805 20.2812C132.052 22.2344 132.293 23.9792 132.527 25.5156C132.762 27.0521 133.009 28.3477 133.27 29.4023C133.53 30.457 133.81 31.2643 134.109 31.8242C134.422 32.3711 134.786 32.6445 135.203 32.6445C135.646 32.6445 136.056 32.3711 136.434 31.8242C136.811 31.2773 137.137 30.5547 137.41 29.6562C137.684 28.7578 137.892 27.7227 138.035 26.5508C138.191 25.3789 138.27 24.168 138.27 22.918ZM149.559 28.0352C149.559 28.4518 149.617 28.9076 149.734 29.4023C149.865 29.8841 150.047 30.3724 150.281 30.8672C150.516 31.362 150.802 31.8372 151.141 32.293C151.492 32.7357 151.889 33.1328 152.332 33.4844C152.788 33.8359 153.289 34.1159 153.836 34.3242C154.383 34.5326 154.982 34.6367 155.633 34.6367C156.089 34.6367 156.512 34.5846 156.902 34.4805C157.293 34.3763 157.658 34.2331 157.996 34.0508C158.335 33.8685 158.66 33.6602 158.973 33.4258C159.285 33.1784 159.598 32.918 159.91 32.6445L160.398 33.1133C160.099 33.5169 159.715 33.9596 159.246 34.4414C158.777 34.9232 158.211 35.3789 157.547 35.8086C156.883 36.2253 156.108 36.5768 155.223 36.8633C154.337 37.1367 153.328 37.2734 152.195 37.2734C151.062 37.2734 149.956 37.0716 148.875 36.668C147.807 36.2513 146.857 35.6328 146.023 34.8125C145.19 33.9922 144.52 32.9701 144.012 31.7461C143.517 30.5221 143.27 29.0898 143.27 27.4492C143.27 26.2643 143.419 25.1771 143.719 24.1875C144.018 23.1979 144.422 22.306 144.93 21.5117C145.451 20.7174 146.049 20.0208 146.727 19.4219C147.417 18.8229 148.139 18.3281 148.895 17.9375C149.65 17.5339 150.418 17.2344 151.199 17.0391C151.993 16.8307 152.755 16.7266 153.484 16.7266C154.448 16.7266 155.288 16.8307 156.004 17.0391C156.72 17.2474 157.312 17.5273 157.781 17.8789C158.263 18.2305 158.621 18.6406 158.855 19.1094C159.09 19.5651 159.207 20.0469 159.207 20.5547C159.207 21.1667 159.031 21.7201 158.68 22.2148C158.328 22.6966 157.859 23.1198 157.273 23.4844L149.559 28.0352ZM153.484 24.0703C153.654 23.9661 153.79 23.8685 153.895 23.7773C154.012 23.6732 154.103 23.556 154.168 23.4258C154.233 23.2826 154.279 23.1133 154.305 22.918C154.344 22.7096 154.363 22.4557 154.363 22.1562C154.363 21.8307 154.324 21.4727 154.246 21.082C154.181 20.6784 154.064 20.3008 153.895 19.9492C153.725 19.5977 153.51 19.3047 153.25 19.0703C152.99 18.8359 152.677 18.7188 152.312 18.7188C151.844 18.7188 151.44 18.862 151.102 19.1484C150.776 19.4219 150.503 19.7799 150.281 20.2227C150.073 20.6654 149.904 21.1732 149.773 21.7461C149.656 22.306 149.565 22.8724 149.5 23.4453C149.435 24.0182 149.396 24.5716 149.383 25.1055C149.37 25.6263 149.363 26.069 149.363 26.4336L153.484 24.0703ZM171.824 26.8828C171.824 26.5573 171.72 26.3099 171.512 26.1406C171.303 25.9714 171.036 25.8867 170.711 25.8867C170.255 25.8867 169.819 25.9909 169.402 26.1992C168.999 26.4076 168.641 26.7135 168.328 27.1172C168.016 27.5208 167.768 28.0221 167.586 28.6211C167.404 29.207 167.312 29.8906 167.312 30.6719C167.312 31.4271 167.365 32.0521 167.469 32.5469C167.586 33.0417 167.736 33.4388 167.918 33.7383C168.113 34.0247 168.335 34.2266 168.582 34.3438C168.829 34.4609 169.09 34.5195 169.363 34.5195C169.702 34.5195 170.021 34.4349 170.32 34.2656C170.62 34.0833 170.88 33.8555 171.102 33.582C171.323 33.3086 171.499 33.0026 171.629 32.6641C171.759 32.3255 171.824 31.987 171.824 31.6484V26.8828ZM168.719 18.3281C168.276 18.3281 167.866 18.3802 167.488 18.4844C167.111 18.5885 166.785 18.7188 166.512 18.875C166.238 19.0312 166.023 19.207 165.867 19.4023C165.711 19.5846 165.633 19.7604 165.633 19.9297C165.633 20.125 165.73 20.2682 165.926 20.3594C166.134 20.4375 166.362 20.5352 166.609 20.6523C166.857 20.7565 167.078 20.9128 167.273 21.1211C167.482 21.3164 167.586 21.6224 167.586 22.0391C167.586 22.3125 167.527 22.5664 167.41 22.8008C167.306 23.0221 167.156 23.224 166.961 23.4062C166.779 23.5755 166.557 23.7122 166.297 23.8164C166.049 23.9076 165.789 23.9531 165.516 23.9531C164.786 23.9531 164.194 23.7057 163.738 23.2109C163.296 22.7161 163.074 22.0586 163.074 21.2383C163.074 20.444 163.283 19.7669 163.699 19.207C164.116 18.6341 164.656 18.1654 165.32 17.8008C165.997 17.4362 166.759 17.1693 167.605 17C168.452 16.8177 169.298 16.7266 170.145 16.7266C171.16 16.7266 172.13 16.8372 173.055 17.0586C173.979 17.2799 174.793 17.6315 175.496 18.1133C176.212 18.5951 176.779 19.207 177.195 19.9492C177.625 20.6914 177.84 21.5898 177.84 22.6445V33.6797C177.84 33.7969 177.846 33.9271 177.859 34.0703C177.872 34.2135 177.905 34.3438 177.957 34.4609C178.009 34.5781 178.087 34.6758 178.191 34.7539C178.296 34.832 178.445 34.8711 178.641 34.8711C178.875 34.8711 179.09 34.7865 179.285 34.6172C179.493 34.4349 179.676 34.2526 179.832 34.0703L180.32 34.4805C180.125 34.7539 179.891 35.0534 179.617 35.3789C179.344 35.7044 179.012 36.0104 178.621 36.2969C178.23 36.5833 177.775 36.8242 177.254 37.0195C176.733 37.2148 176.141 37.3125 175.477 37.3125C174.656 37.3125 173.927 37.0716 173.289 36.5898C172.651 36.0951 172.234 35.3398 172.039 34.3242C171.622 34.8841 171.186 35.3529 170.73 35.7305C170.288 36.1081 169.832 36.4141 169.363 36.6484C168.895 36.8828 168.419 37.0521 167.938 37.1562C167.469 37.2604 166.993 37.3125 166.512 37.3125C165.887 37.3125 165.281 37.2148 164.695 37.0195C164.109 36.8242 163.582 36.5182 163.113 36.1016C162.658 35.6719 162.286 35.1185 162 34.4414C161.727 33.7643 161.59 32.9375 161.59 31.9609C161.59 30.776 161.824 29.806 162.293 29.0508C162.762 28.2956 163.374 27.6641 164.129 27.1562C164.897 26.6354 165.763 26.1927 166.727 25.8281C167.703 25.4635 168.699 25.0794 169.715 24.6758C170.47 24.3763 171.017 23.9336 171.355 23.3477C171.707 22.7487 171.883 22.1367 171.883 21.5117C171.883 20.5482 171.596 19.7799 171.023 19.207C170.464 18.6211 169.695 18.3281 168.719 18.3281ZM182.43 20.3984C182.352 19.8776 182.221 19.474 182.039 19.1875C181.87 18.901 181.577 18.7578 181.16 18.7578C180.939 18.7578 180.743 18.7969 180.574 18.875C180.418 18.9531 180.249 19.0638 180.066 19.207L179.676 18.7188C179.975 18.4714 180.307 18.2305 180.672 17.9961C181.049 17.7487 181.453 17.5339 181.883 17.3516C182.312 17.1693 182.775 17.0195 183.27 16.9023C183.764 16.7852 184.285 16.7266 184.832 16.7266C185.613 16.7266 186.245 16.8633 186.727 17.1367C187.208 17.3971 187.586 17.7292 187.859 18.1328C188.146 18.5234 188.348 18.9466 188.465 19.4023C188.582 19.8581 188.667 20.2682 188.719 20.6328C189.201 24.5781 189.741 27.5664 190.34 29.5977C190.939 31.6289 191.648 32.6445 192.469 32.6445C192.924 32.6445 193.361 32.3971 193.777 31.9023C194.207 31.4076 194.578 30.7305 194.891 29.8711C195.216 29.0117 195.477 28.0091 195.672 26.8633C195.867 25.7174 195.965 24.4935 195.965 23.1914C195.965 22.332 195.906 21.6094 195.789 21.0234C195.672 20.4245 195.542 19.9232 195.398 19.5195C195.255 19.1159 195.125 18.7839 195.008 18.5234C194.891 18.25 194.832 18.0091 194.832 17.8008C194.832 17.6055 194.91 17.4427 195.066 17.3125C195.223 17.1823 195.405 17.0716 195.613 16.9805C195.835 16.8893 196.056 16.8242 196.277 16.7852C196.512 16.7461 196.701 16.7266 196.844 16.7266C197.221 16.7266 197.495 16.7786 197.664 16.8828C197.833 16.987 197.97 17.1888 198.074 17.4883C198.191 17.8659 198.27 18.3672 198.309 18.9922C198.361 19.6042 198.387 20.2617 198.387 20.9648C198.387 21.9674 198.315 23.0677 198.172 24.2656C198.042 25.4635 197.833 26.668 197.547 27.8789C197.273 29.0898 196.922 30.2617 196.492 31.3945C196.062 32.5273 195.548 33.5365 194.949 34.4219C194.363 35.2943 193.693 35.9974 192.938 36.5312C192.195 37.0521 191.362 37.3125 190.438 37.3125C189.357 37.3125 188.419 37 187.625 36.375C186.831 35.75 186.154 34.9362 185.594 33.9336C185.047 32.931 184.591 31.8047 184.227 30.5547C183.862 29.3047 183.562 28.0547 183.328 26.8047C183.107 25.5417 182.924 24.3503 182.781 23.2305C182.651 22.0977 182.534 21.1536 182.43 20.3984ZM206.707 28.0352C206.707 28.4518 206.766 28.9076 206.883 29.4023C207.013 29.8841 207.195 30.3724 207.43 30.8672C207.664 31.362 207.951 31.8372 208.289 32.293C208.641 32.7357 209.038 33.1328 209.48 33.4844C209.936 33.8359 210.438 34.1159 210.984 34.3242C211.531 34.5326 212.13 34.6367 212.781 34.6367C213.237 34.6367 213.66 34.5846 214.051 34.4805C214.441 34.3763 214.806 34.2331 215.145 34.0508C215.483 33.8685 215.809 33.6602 216.121 33.4258C216.434 33.1784 216.746 32.918 217.059 32.6445L217.547 33.1133C217.247 33.5169 216.863 33.9596 216.395 34.4414C215.926 34.9232 215.359 35.3789 214.695 35.8086C214.031 36.2253 213.257 36.5768 212.371 36.8633C211.486 37.1367 210.477 37.2734 209.344 37.2734C208.211 37.2734 207.104 37.0716 206.023 36.668C204.956 36.2513 204.005 35.6328 203.172 34.8125C202.339 33.9922 201.668 32.9701 201.16 31.7461C200.665 30.5221 200.418 29.0898 200.418 27.4492C200.418 26.2643 200.568 25.1771 200.867 24.1875C201.167 23.1979 201.57 22.306 202.078 21.5117C202.599 20.7174 203.198 20.0208 203.875 19.4219C204.565 18.8229 205.288 18.3281 206.043 17.9375C206.798 17.5339 207.566 17.2344 208.348 17.0391C209.142 16.8307 209.904 16.7266 210.633 16.7266C211.596 16.7266 212.436 16.8307 213.152 17.0391C213.868 17.2474 214.461 17.5273 214.93 17.8789C215.411 18.2305 215.77 18.6406 216.004 19.1094C216.238 19.5651 216.355 20.0469 216.355 20.5547C216.355 21.1667 216.18 21.7201 215.828 22.2148C215.477 22.6966 215.008 23.1198 214.422 23.4844L206.707 28.0352ZM210.633 24.0703C210.802 23.9661 210.939 23.8685 211.043 23.7773C211.16 23.6732 211.251 23.556 211.316 23.4258C211.382 23.2826 211.427 23.1133 211.453 22.918C211.492 22.7096 211.512 22.4557 211.512 22.1562C211.512 21.8307 211.473 21.4727 211.395 21.082C211.329 20.6784 211.212 20.3008 211.043 19.9492C210.874 19.5977 210.659 19.3047 210.398 19.0703C210.138 18.8359 209.826 18.7188 209.461 18.7188C208.992 18.7188 208.589 18.862 208.25 19.1484C207.924 19.4219 207.651 19.7799 207.43 20.2227C207.221 20.6654 207.052 21.1732 206.922 21.7461C206.805 22.306 206.714 22.8724 206.648 23.4453C206.583 24.0182 206.544 24.5716 206.531 25.1055C206.518 25.6263 206.512 26.069 206.512 26.4336L210.633 24.0703ZM226.414 20.8477C226.909 20.0924 227.436 19.4089 227.996 18.7969C228.23 18.5365 228.484 18.2826 228.758 18.0352C229.031 17.7878 229.311 17.5664 229.598 17.3711C229.897 17.1758 230.203 17.0195 230.516 16.9023C230.828 16.7852 231.141 16.7266 231.453 16.7266C232.117 16.7266 232.638 16.9284 233.016 17.332C233.393 17.7227 233.582 18.276 233.582 18.9922C233.582 19.4349 233.543 19.8646 233.465 20.2812C233.4 20.6849 233.263 21.1797 233.055 21.7656H232.508C232.43 21.362 232.247 21.0299 231.961 20.7695C231.674 20.4961 231.258 20.3594 230.711 20.3594C230.307 20.3594 229.91 20.4375 229.52 20.5938C229.129 20.737 228.745 20.9193 228.367 21.1406C228.003 21.362 227.651 21.6029 227.312 21.8633C226.987 22.1237 226.688 22.3711 226.414 22.6055V35.2812C226.414 35.4505 226.388 35.6523 226.336 35.8867C226.284 36.1211 226.154 36.3424 225.945 36.5508C225.75 36.7591 225.451 36.9349 225.047 37.0781C224.656 37.2344 224.116 37.3125 223.426 37.3125C222.736 37.3125 222.189 37.2279 221.785 37.0586C221.395 36.9023 221.095 36.7135 220.887 36.4922C220.678 36.2708 220.548 36.043 220.496 35.8086C220.444 35.5742 220.418 35.3854 220.418 35.2422V20.1641C220.418 19.7865 220.327 19.4609 220.145 19.1875C219.975 18.901 219.682 18.7578 219.266 18.7578C219.044 18.7578 218.855 18.7969 218.699 18.875C218.543 18.9531 218.374 19.0638 218.191 19.207L217.781 18.7188C218.081 18.4714 218.413 18.2305 218.777 17.9961C219.155 17.7487 219.559 17.5339 219.988 17.3516C220.418 17.1693 220.88 17.0195 221.375 16.9023C221.87 16.7852 222.391 16.7266 222.938 16.7266C223.497 16.7266 223.973 16.8047 224.363 16.9609C224.767 17.1042 225.092 17.2995 225.34 17.5469C225.6 17.7812 225.802 18.0482 225.945 18.3477C226.089 18.6471 226.193 18.9531 226.258 19.2656C226.336 19.5651 226.382 19.8581 226.395 20.1445C226.408 20.418 226.414 20.6523 226.414 20.8477Z"/>
</svg>
